<svg xmlns="http://www.w3.org/2000/svg" xmlns:xlink="http://www.w3.org/1999/xlink" width="500" zoomAndPan="magnify" viewBox="0 0 375 299.999988" height="400" preserveAspectRatio="xMidYMid meet" version="1.0"><defs><g/></defs><rect x="-37.5" width="450" fill="#ffffff" y="-29.999999" height="359.999986" fill-opacity="1"/><rect x="-37.5" width="450" fill="#ffffff" y="-29.999999" height="359.999986" fill-opacity="1"/><rect x="-37.5" width="450" fill="#ffffff" y="-29.999999" height="359.999986" fill-opacity="1"/><path stroke-linecap="butt" transform="matrix(0.750486, 0, 0, 0.75, 52.549969, 230.81484)" fill="none" stroke-linejoin="miter" d="M 0.00108255 6.002088 L 361.771928 6.002088 " stroke="#ed1e79" stroke-width="12" stroke-opacity="1" stroke-miterlimit="4"/><path stroke-linecap="butt" transform="matrix(0.749414, 0, 0, 0.75, 51.120783, 60.590469)" fill="none" stroke-linejoin="miter" d="M 0.000414223 5.999166 L 360.281694 5.999166 " stroke="#000000" stroke-width="12" stroke-opacity="1" stroke-miterlimit="4"/><path stroke-linecap="butt" transform="matrix(-0.00359879, -0.748407, 0.749991, -0.00360641, 53.318403, 221.080969)" fill="none" stroke-linejoin="miter" d="M 0.000997134 5.997412 L 214.467045 6.000462 " stroke="#000000" stroke-width="12" stroke-opacity="1" stroke-miterlimit="4"/><g fill="#ed1e79" fill-opacity="1"><g transform="translate(124.71334, 146.138378)"><g><path d="M 39.285156 -5.796875 L 43.214844 -12.585938 L 16.78125 -25.707031 L 43.214844 -38.828125 L 39.285156 -45.617188 L 1.714844 -25.707031 Z M 39.285156 -5.796875 "/></g></g><g transform="translate(171.893478, 146.138378)"><g><path d="M -1.410156 16.402344 L 7.246094 16.402344 L 37.035156 -57.820312 L 28.339844 -57.820312 Z M -1.410156 16.402344 "/></g></g><g transform="translate(207.516961, 146.138378)"><g><path d="M 7.894531 -5.796875 L 45.464844 -25.707031 L 7.894531 -45.617188 L 3.964844 -38.828125 L 30.398438 -25.707031 L 3.964844 -12.585938 Z M 7.894531 -5.796875 "/></g></g></g><g fill="#0d1950" fill-opacity="1"><g transform="translate(84.995326, 202.936711)"><g><path d="M 27.085938 -15.808594 L 22.660156 -3.1875 L 16.785156 -15.808594 L 13.410156 -15.808594 L 7.535156 -3.1875 L 3.109375 -15.808594 L 0.34375 -15.808594 L 5.875 0 L 9.039062 0 L 15.097656 -12.988281 L 21.15625 0 L 24.320312 0 L 29.851562 -15.808594 Z M 27.085938 -15.808594 "/></g></g></g><g fill="#0d1950" fill-opacity="1"><g transform="translate(115.712338, 202.936711)"><g><path d="M 19.917969 -13.410156 L 19.917969 -15.808594 L 3.265625 -15.808594 L 3.265625 0 L 19.917969 0 L 19.917969 -2.398438 L 5.953125 -2.398438 L 5.953125 -6.507812 L 18.285156 -6.507812 L 18.285156 -8.90625 L 5.953125 -8.90625 L 5.953125 -13.410156 Z M 19.917969 -13.410156 "/></g></g></g><g fill="#0d1950" fill-opacity="1"><g transform="translate(137.76226, 202.936711)"><g><path d="M 3.265625 0 L 12.910156 0 C 17.074219 0 20.023438 -1.582031 20.023438 -4.820312 L 20.023438 -5.21875 C 20.023438 -7.71875 18.128906 -8.007812 17.890625 -8.21875 C 18.285156 -8.40625 19.679688 -9.011719 19.679688 -11.488281 L 19.679688 -11.699219 C 19.679688 -14.621094 17.097656 -15.808594 14.226562 -15.808594 L 3.265625 -15.808594 Z M 5.953125 -9.667969 L 5.953125 -13.171875 L 14.226562 -13.171875 C 16.308594 -13.171875 16.941406 -12.515625 16.941406 -11.699219 L 16.941406 -11.488281 C 16.941406 -10.011719 16.152344 -9.667969 14.226562 -9.667969 Z M 5.953125 -2.632812 L 5.953125 -6.851562 L 12.910156 -6.851562 C 15.859375 -6.851562 17.285156 -6.796875 17.285156 -5.21875 L 17.285156 -4.820312 C 17.285156 -3.953125 16.175781 -2.632812 12.910156 -2.632812 Z M 5.953125 -2.632812 "/></g></g></g><g fill="#0d1950" fill-opacity="1"><g transform="translate(160.523459, 202.936711)"><g/></g></g><g fill="#0d1950" fill-opacity="1"><g transform="translate(171.588029, 202.936711)"><g><path d="M 13.515625 -8.535156 L 13.515625 -6.140625 L 20.183594 -6.140625 C 19.339844 -3.453125 16.835938 -2.371094 12.355469 -2.371094 C 6.613281 -2.371094 4.847656 -4.53125 4.847656 -7.667969 L 4.847656 -8.21875 C 4.847656 -11.355469 7.085938 -13.515625 12.804688 -13.515625 C 18.179688 -13.515625 19.628906 -11.410156 19.839844 -10.300781 L 22.765625 -10.300781 C 22.660156 -12.648438 20.523438 -16.152344 12.804688 -16.152344 C 4.664062 -16.152344 2.109375 -12.382812 2.109375 -8.21875 L 2.109375 -7.667969 C 2.109375 -3.503906 4.214844 0.261719 12.355469 0.261719 C 16.785156 0.261719 19.3125 -0.683594 20.628906 -2.53125 L 20.628906 -2.398438 L 21.023438 0 L 23.1875 0 L 23.1875 -8.535156 Z M 13.515625 -8.535156 "/></g></g></g><g fill="#0d1950" fill-opacity="1"><g transform="translate(197.563169, 202.936711)"><g><path d="M 19.917969 -13.410156 L 19.917969 -15.808594 L 3.265625 -15.808594 L 3.265625 0 L 19.917969 0 L 19.917969 -2.398438 L 5.953125 -2.398438 L 5.953125 -6.507812 L 18.285156 -6.507812 L 18.285156 -8.90625 L 5.953125 -8.90625 L 5.953125 -13.410156 Z M 19.917969 -13.410156 "/></g></g></g><g fill="#0d1950" fill-opacity="1"><g transform="translate(219.613093, 202.936711)"><g><path d="M 19.917969 -13.410156 L 19.917969 -15.808594 L 3.265625 -15.808594 L 3.265625 0 L 19.917969 0 L 19.917969 -2.398438 L 5.953125 -2.398438 L 5.953125 -6.507812 L 18.285156 -6.507812 L 18.285156 -8.90625 L 5.953125 -8.90625 L 5.953125 -13.410156 Z M 19.917969 -13.410156 "/></g></g></g><g fill="#0d1950" fill-opacity="1"><g transform="translate(241.663018, 202.936711)"><g><path d="M 21.65625 -15.808594 L 17.835938 -15.808594 L 10.222656 -9.273438 L 5.953125 -9.273438 L 5.953125 -15.808594 L 3.265625 -15.808594 L 3.265625 0 L 5.953125 0 L 5.953125 -6.640625 L 9.773438 -6.640625 L 17.519531 0 L 21.472656 0 L 12.671875 -7.902344 Z M 21.65625 -15.808594 "/></g></g></g><g fill="#0d1950" fill-opacity="1"><g transform="translate(264.187129, 202.936711)"><g><path d="M 18.46875 -10.695312 L 21.15625 -10.695312 C 21.15625 -14.648438 17.574219 -16.046875 11.910156 -16.046875 C 5.191406 -16.046875 2.132812 -14.492188 2.132812 -11.59375 L 2.132812 -11.382812 C 2.132812 -7.824219 5.007812 -7.351562 11.328125 -6.691406 C 18.207031 -6.058594 18.234375 -5.113281 18.234375 -4.691406 L 18.234375 -4.375 C 18.234375 -2.53125 14.28125 -2.371094 11.355469 -2.371094 C 6.875 -2.371094 4.796875 -3.558594 4.796875 -5.453125 L 2.109375 -5.453125 C 2.109375 -1.921875 5.164062 0.261719 11.355469 0.261719 C 17.96875 0.261719 21 -0.976562 21 -4.453125 L 21 -4.714844 C 21 -8.300781 17.46875 -8.800781 11.488281 -9.351562 C 4.925781 -9.960938 4.902344 -10.777344 4.902344 -11.410156 L 4.902344 -11.644531 C 4.902344 -12.910156 8.167969 -13.410156 11.910156 -13.410156 C 15.652344 -13.410156 18.46875 -12.726562 18.46875 -10.695312 Z M 18.46875 -10.695312 "/></g></g></g><path stroke-linecap="butt" transform="matrix(-0.00521765, -0.75173, 0.749982, -0.00520551, 312.018059, 221.121397)" fill="none" stroke-linejoin="miter" d="M 0.000411487 6.002111 L 214.505622 5.999603 " stroke="#000000" stroke-width="12" stroke-opacity="1" stroke-miterlimit="4"/></svg>