<svg width="359" height="42" viewBox="0 0 359 42" fill="none" xmlns="http://www.w3.org/2000/svg">
<path d="M25.4139 24.15V31.35L0.463867 22.45V15.55L25.4139 6.65V13.85L7.71387 19L25.4139 24.15ZM35.1072 41.15H27.5572L45.5072 0.649999H53.1072L35.1072 41.15ZM78.0506 22.45L53.1006 31.35V24.15L70.8006 19L53.1006 13.85V6.65L78.0506 15.55V22.45ZM111.394 36H102.794L93.7439 2.3H101.844L104.944 14.7C105.611 17.3667 106.161 19.7833 106.594 21.95C107.027 24.0833 107.294 25.5667 107.394 26.4L107.594 27.6C108.161 25 109.294 20.7 110.994 14.7L114.344 2.8H120.044L123.344 14.7C124.044 17.2 124.661 19.5333 125.194 21.7C125.761 23.8333 126.144 25.35 126.344 26.25L126.644 27.6C127.077 24.6333 128.011 20.3167 129.444 14.65L132.544 2.3H140.394L131.394 36H122.794L119.844 25.35C119.144 22.7833 118.561 20.6167 118.094 18.85C117.661 17.0833 117.394 15.95 117.294 15.45L117.194 14.7C117.094 16.0667 116.194 19.6167 114.494 25.35L111.394 36ZM165.529 36H144.579V2.3H165.329V8.45H152.329V16.1H163.929V22.2H152.329V29.85H165.529V36ZM186.326 36H171.776V2.3H184.876C188.576 2.3 191.393 3.18333 193.326 4.95C195.26 6.68333 196.226 8.9 196.226 11.6C196.226 13.3667 195.76 14.9167 194.826 16.25C193.893 17.5833 192.676 18.4833 191.176 18.95C195.076 20.1167 197.026 22.75 197.026 26.85C197.026 29.5167 196.06 31.7167 194.126 33.45C192.226 35.15 189.626 36 186.326 36ZM183.576 8.45H179.476V16H182.326C184.326 16 185.826 15.6333 186.826 14.9C187.86 14.1667 188.376 13.2 188.376 12C188.376 9.63333 186.776 8.45 183.576 8.45ZM183.576 22.05H179.476V29.85H183.526C187.326 29.85 189.226 28.55 189.226 25.95C189.226 23.35 187.343 22.05 183.576 22.05ZM243.6 32.9C240.4 35.2333 236.366 36.4 231.5 36.4C226.1 36.4 221.716 34.85 218.35 31.75C214.983 28.65 213.3 24.4333 213.3 19.1C213.3 13.8333 215.05 9.61667 218.55 6.45C222.083 3.28333 226.55 1.7 231.95 1.7C235.75 1.7 239.033 2.4 241.8 3.8V11.5C238.6 9.66667 235.316 8.75 231.95 8.75C228.783 8.75 226.266 9.7 224.4 11.6C222.533 13.4667 221.6 15.9667 221.6 19.1C221.6 22.2667 222.516 24.7833 224.35 26.65C226.183 28.5167 228.683 29.45 231.85 29.45C233.283 29.45 234.7 29.2333 236.1 28.8V22.45H230.65V15.9H243.6V32.9ZM270.803 36H249.853V2.3H270.603V8.45H257.603V16.1H269.203V22.2H257.603V29.85H270.803V36ZM298 36H277.05V2.3H297.8V8.45H284.8V16.1H296.4V22.2H284.8V29.85H298V36ZM333.247 36H323.597L312.297 19.25L323.197 2.3H332.347L321.297 19.15L333.247 36ZM311.947 36H304.247V2.3H311.947V36ZM358.303 26.2C358.303 29.2333 357.186 31.7 354.953 33.6C352.719 35.4667 349.753 36.4 346.053 36.4C342.086 36.4 338.853 35.7 336.353 34.3V26.55C339.386 28.75 342.619 29.85 346.053 29.85C347.219 29.85 348.186 29.55 348.953 28.95C349.719 28.3167 350.103 27.5 350.103 26.5C350.103 26.1667 350.053 25.85 349.953 25.55C349.853 25.25 349.669 24.9667 349.403 24.7C349.136 24.4333 348.869 24.2167 348.603 24.05C348.369 23.85 348.003 23.6333 347.503 23.4C347.036 23.1333 346.636 22.9167 346.303 22.75C345.969 22.5833 345.469 22.35 344.803 22.05C344.169 21.75 343.653 21.5167 343.253 21.35C341.086 20.35 339.336 19.1167 338.003 17.65C336.703 16.1833 336.053 14.2333 336.053 11.8C336.053 8.9 337.119 6.56667 339.253 4.8C341.386 3 344.336 2.1 348.103 2.1C351.469 2.1 354.369 2.66666 356.803 3.8V11C354.103 9.43333 351.303 8.65 348.403 8.65C347.103 8.65 346.103 8.91666 345.403 9.45C344.736 9.98333 344.403 10.6667 344.403 11.5C344.403 12.3333 344.819 13.0833 345.653 13.75C346.486 14.3833 347.736 15.0667 349.403 15.8C350.436 16.2667 351.286 16.6833 351.953 17.05C352.653 17.3833 353.436 17.8667 354.303 18.5C355.203 19.1 355.903 19.75 356.403 20.45C356.936 21.1167 357.386 21.95 357.753 22.95C358.119 23.95 358.303 25.0333 358.303 26.2Z" fill="black"/>
</svg>
