<svg width="701" height="268" viewBox="0 0 701 268" fill="none" xmlns="http://www.w3.org/2000/svg">
<rect width="701" height="268" fill="#F5F5F5"/>
<rect width="701" height="268" fill="white"/>
<g clip-path="url(#clip0_0_1)">
<path d="M139.616 206.188L136.554 192.25H112.446L109.383 206.188H139.616Z" fill="#F58978"/>
<path d="M157.065 213.708H91.9352V218.478H157.065V213.708Z" fill="white"/>
<path d="M204.9 55.9898H44.0998C38.3983 55.9898 33.7591 60.1092 33.7591 65.1685V169.081C33.7591 174.142 38.3983 178.261 44.0998 178.261H204.9C210.602 178.261 215.241 174.142 215.241 169.081V65.1675C215.241 60.1081 210.602 55.9898 204.9 55.9898ZM107.359 140.305L130.697 86.3158C131.558 84.3195 133.757 82.9765 136.166 82.9765C136.888 82.9765 137.599 83.0959 138.276 83.3296C139.731 83.8261 140.887 84.7962 141.524 86.0665C142.163 87.3379 142.205 88.7504 141.646 90.0488L118.309 144.03C117.451 146.029 115.252 147.374 112.835 147.374C112.116 147.374 111.406 147.257 110.729 147.023C109.275 146.529 108.118 145.556 107.479 144.284C106.844 143.017 106.8 141.603 107.359 140.305ZM102.609 146.31C101.513 147.228 100.086 147.732 98.5868 147.732C96.9827 147.732 95.4289 147.139 94.3221 146.1L65.2399 118.74C63.1104 116.737 63.1104 113.601 65.2387 111.593L94.3232 84.2582C95.4219 83.2216 96.9769 82.6275 98.5868 82.6275C100.089 82.6275 101.519 83.1302 102.611 84.0432C104.962 86.0125 105.071 89.3124 102.852 91.4011L77.5673 115.173L102.85 138.959C103.926 139.967 104.491 141.288 104.445 142.681C104.4 144.068 103.748 145.358 102.609 146.31ZM183.754 118.758L154.676 146.097C153.578 147.131 152.021 147.727 150.409 147.727C148.909 147.727 147.48 147.225 146.387 146.314C144.038 144.337 143.931 141.036 146.145 138.951L171.429 115.173L146.147 91.3918C145.073 90.378 144.507 89.0569 144.553 87.6661C144.598 86.2763 145.251 84.9873 146.389 84.0307C147.482 83.1177 148.907 82.6161 150.41 82.6161C152.018 82.6161 153.573 83.2123 154.676 84.2509L183.755 111.609C185.892 113.617 185.89 116.756 183.754 118.758Z" fill="white"/>
<path d="M204.903 42H44.0998C29.7073 42 18 52.3929 18 65.1675V169.081C18 181.858 29.7073 192.251 44.0998 192.251H103.814L100.753 206.19H87.6997C85.3597 206.19 83.4642 207.871 83.4642 209.948V222.238C83.4642 224.315 85.3597 226.001 87.6997 226.001H161.299C163.639 226.001 165.536 224.315 165.536 222.238V209.948C165.536 207.871 163.639 206.19 161.299 206.19H148.247L145.186 192.251H204.903C219.293 192.251 231 181.858 231 169.081V65.1675C231 52.3929 219.293 42 204.903 42ZM112.446 192.25H136.554L139.616 206.188H109.383L112.446 192.25ZM157.064 213.708V218.478H91.9352V213.708H157.064ZM215.241 169.081C215.241 174.142 210.602 178.261 204.9 178.261H44.0998C38.3983 178.261 33.7591 174.142 33.7591 169.081V65.1675C33.7591 60.1081 38.3983 55.9888 44.0998 55.9888H204.9C210.602 55.9888 215.241 60.1081 215.241 65.1675V169.081Z" fill="black"/>
<path d="M110.731 147.023C111.407 147.257 112.117 147.374 112.837 147.374C115.252 147.374 117.451 146.029 118.31 144.03L141.646 90.0467C142.207 88.7484 142.163 87.3358 141.525 86.0644C140.887 84.7942 139.731 83.824 138.277 83.3276C137.599 83.0939 136.888 82.9744 136.166 82.9744C133.757 82.9744 131.558 84.3174 130.697 86.3137L107.359 140.304C106.8 141.602 106.844 143.015 107.48 144.284C108.118 145.556 109.276 146.531 110.731 147.023ZM154.676 84.253C153.573 83.2143 152.018 82.6181 150.41 82.6181C148.911 82.6181 147.482 83.1198 146.389 84.0328C145.249 84.9894 144.598 86.2784 144.553 87.6682C144.507 89.0589 145.073 90.3801 146.147 91.3939L171.429 115.175L146.145 138.953C143.931 141.038 144.038 144.339 146.387 146.317C147.48 147.227 148.906 147.729 150.409 147.729C152.023 147.729 153.578 147.133 154.676 146.099L183.754 118.758C185.89 116.755 185.892 113.617 183.758 111.61L154.676 84.253ZM77.5673 115.171L102.852 91.399C105.07 89.3103 104.962 86.0104 102.611 84.0411C101.518 83.1281 100.089 82.6254 98.5868 82.6254C96.9769 82.6254 95.4231 83.2195 94.3233 84.2561L65.2387 111.593C63.1104 113.601 63.1104 116.737 65.2399 118.74L94.3233 146.102C95.4289 147.14 96.9827 147.733 98.588 147.733C100.086 147.733 101.514 147.23 102.611 146.311C103.749 145.358 104.4 144.069 104.446 142.681C104.492 141.288 103.927 139.967 102.852 138.959L77.5673 115.171Z" fill="black"/>
</g>
<path d="M278.166 148H264.406L249.926 94.08H262.886L267.846 113.92C268.913 118.187 269.793 122.053 270.486 125.52C271.18 128.933 271.606 131.307 271.766 132.64L272.086 134.56C272.993 130.4 274.806 123.52 277.526 113.92L282.886 94.88H292.006L297.286 113.92C298.406 117.92 299.393 121.653 300.246 125.12C301.153 128.533 301.766 130.96 302.086 132.4L302.566 134.56C303.26 129.813 304.753 122.907 307.046 113.84L312.006 94.08H324.566L310.166 148H296.406L291.686 130.96C290.566 126.853 289.633 123.387 288.886 120.56C288.193 117.733 287.766 115.92 287.606 115.12L287.446 113.92C287.286 116.107 285.846 121.787 283.126 130.96L278.166 148ZM364.783 148H331.263V94.08H364.463V103.92H343.663V116.16H362.223V125.92H343.663V138.16H364.783V148ZM398.058 148H374.778V94.08H395.738C401.658 94.08 406.165 95.4933 409.258 98.32C412.351 101.093 413.898 104.64 413.898 108.96C413.898 111.787 413.151 114.267 411.658 116.4C410.165 118.533 408.218 119.973 405.818 120.72C412.058 122.587 415.178 126.8 415.178 133.36C415.178 137.627 413.631 141.147 410.538 143.92C407.498 146.64 403.338 148 398.058 148ZM393.658 103.92H387.098V116H391.658C394.858 116 397.258 115.413 398.858 114.24C400.511 113.067 401.338 111.52 401.338 109.6C401.338 105.813 398.778 103.92 393.658 103.92ZM393.658 125.68H387.098V138.16H393.578C399.658 138.16 402.698 136.08 402.698 131.92C402.698 127.76 399.685 125.68 393.658 125.68ZM489.696 143.04C484.576 146.773 478.122 148.64 470.336 148.64C461.696 148.64 454.682 146.16 449.296 141.2C443.909 136.24 441.216 129.493 441.216 120.96C441.216 112.533 444.016 105.787 449.616 100.72C455.269 95.6533 462.416 93.12 471.056 93.12C477.136 93.12 482.389 94.24 486.816 96.48V108.8C481.696 105.867 476.442 104.4 471.056 104.4C465.989 104.4 461.962 105.92 458.976 108.96C455.989 111.947 454.496 115.947 454.496 120.96C454.496 126.027 455.962 130.053 458.896 133.04C461.829 136.027 465.829 137.52 470.896 137.52C473.189 137.52 475.456 137.173 477.696 136.48V126.32H468.976V115.84H489.696V143.04ZM533.22 148H499.7V94.08H532.9V103.92H512.1V116.16H530.66V125.92H512.1V138.16H533.22V148ZM576.736 148H543.216V94.08H576.416V103.92H555.616V116.16H574.176V125.92H555.616V138.16H576.736V148ZM633.131 148H617.691L599.611 121.2L617.051 94.08H631.691L614.011 121.04L633.131 148ZM599.051 148H586.731V94.08H599.051V148ZM673.22 132.32C673.22 137.173 671.433 141.12 667.86 144.16C664.287 147.147 659.54 148.64 653.62 148.64C647.273 148.64 642.1 147.52 638.1 145.28V132.88C642.953 136.4 648.127 138.16 653.62 138.16C655.487 138.16 657.033 137.68 658.26 136.72C659.487 135.707 660.1 134.4 660.1 132.8C660.1 132.267 660.02 131.76 659.86 131.28C659.7 130.8 659.407 130.347 658.98 129.92C658.553 129.493 658.127 129.147 657.7 128.88C657.327 128.56 656.74 128.213 655.94 127.84C655.193 127.413 654.553 127.067 654.02 126.8C653.487 126.533 652.687 126.16 651.62 125.68C650.607 125.2 649.78 124.827 649.14 124.56C645.673 122.96 642.873 120.987 640.74 118.64C638.66 116.293 637.62 113.173 637.62 109.28C637.62 104.64 639.327 100.907 642.74 98.08C646.153 95.2 650.873 93.76 656.9 93.76C662.287 93.76 666.927 94.6667 670.82 96.48V108C666.5 105.493 662.02 104.24 657.38 104.24C655.3 104.24 653.7 104.667 652.58 105.52C651.513 106.373 650.98 107.467 650.98 108.8C650.98 110.133 651.647 111.333 652.98 112.4C654.313 113.413 656.313 114.507 658.98 115.68C660.633 116.427 661.993 117.093 663.06 117.68C664.18 118.213 665.433 118.987 666.82 120C668.26 120.96 669.38 122 670.18 123.12C671.033 124.187 671.753 125.52 672.34 127.12C672.927 128.72 673.22 130.453 673.22 132.32Z" fill="black"/>
<defs>
<clipPath id="clip0_0_1">
<rect width="213" height="184" fill="white" transform="translate(18 42)"/>
</clipPath>
</defs>
</svg>
