<svg width="213" height="184" viewBox="0 0 213 184" fill="none" xmlns="http://www.w3.org/2000/svg">
<g clip-path="url(#clip0_1_3)">
<path d="M121.616 164.188L118.554 150.25H94.4458L91.3827 164.188H121.616Z" fill="#F58978"/>
<path d="M139.065 171.708H73.9352V176.478H139.065V171.708Z" fill="white"/>
<path d="M186.9 13.9898H26.0998C20.3983 13.9898 15.7591 18.1092 15.7591 23.1685V127.081C15.7591 132.142 20.3983 136.261 26.0998 136.261H186.9C192.602 136.261 197.241 132.142 197.241 127.081V23.1675C197.241 18.1081 192.602 13.9898 186.9 13.9898ZM89.3585 98.3047L112.697 44.3158C113.558 42.3195 115.757 40.9765 118.166 40.9765C118.888 40.9765 119.599 41.0959 120.276 41.3296C121.731 41.8261 122.887 42.7962 123.524 44.0665C124.163 45.3379 124.205 46.7504 123.646 48.0488L100.309 102.03C99.4512 104.029 97.2515 105.374 94.8354 105.374C94.1158 105.374 93.4056 105.257 92.7294 105.023C91.275 104.529 90.1179 103.556 89.479 102.284C88.8437 101.017 88.8004 99.603 89.3585 98.3047ZM84.6094 104.31C83.5131 105.228 82.0856 105.732 80.5868 105.732C78.9827 105.732 77.4289 105.139 76.3221 104.1L47.2399 76.7399C45.1104 74.7373 45.1104 71.6006 47.2387 69.5928L76.3232 42.2582C77.4219 41.2216 78.9769 40.6275 80.5868 40.6275C82.0891 40.6275 83.5189 41.1302 84.6105 42.0432C86.9623 44.0125 87.0711 47.3124 84.8516 49.4011L59.5673 73.1731L84.8504 96.9586C85.9256 97.9671 86.4908 99.2883 86.4451 100.681C86.3995 102.068 85.7478 103.358 84.6094 104.31ZM165.754 76.7576L136.676 104.097C135.578 105.131 134.021 105.727 132.409 105.727C130.909 105.727 129.48 105.225 128.387 104.314C126.038 102.337 125.931 99.0359 128.145 96.9513L153.429 73.1731L128.147 49.3918C127.073 48.378 126.507 47.0569 126.553 45.6661C126.598 44.2763 127.251 42.9873 128.389 42.0307C129.482 41.1177 130.907 40.6161 132.41 40.6161C134.018 40.6161 135.573 41.2123 136.676 42.2509L165.755 69.6094C167.892 71.6172 167.89 74.756 165.754 76.7576Z" fill="white"/>
<path d="M186.903 0H26.0998C11.7073 0 0 10.3929 0 23.1675V127.081C0 139.858 11.7073 150.251 26.0998 150.251H85.8145L82.7525 164.19H69.6997C67.3597 164.19 65.4642 165.871 65.4642 167.948V180.238C65.4642 182.315 67.3597 184.001 69.6997 184.001H143.299C145.639 184.001 147.536 182.315 147.536 180.238V167.948C147.536 165.871 145.639 164.19 143.299 164.19H130.247L127.186 150.251H186.903C201.293 150.251 213 139.858 213 127.081V23.1675C213 10.3929 201.293 0 186.903 0ZM94.4458 150.25H118.554L121.616 164.188H91.3827L94.4458 150.25ZM139.064 171.708V176.478H73.9352V171.708H139.064ZM197.241 127.081C197.241 132.142 192.602 136.261 186.9 136.261H26.0998C20.3983 136.261 15.7591 132.142 15.7591 127.081V23.1675C15.7591 18.1081 20.3983 13.9888 26.0998 13.9888H186.9C192.602 13.9888 197.241 18.1081 197.241 23.1675V127.081Z" fill="black"/>
<path d="M92.7305 105.023C93.4068 105.257 94.117 105.374 94.8366 105.374C97.2515 105.374 99.4512 104.029 100.31 102.03L123.646 48.0467C124.207 46.7484 124.163 45.3358 123.525 44.0644C122.887 42.7942 121.731 41.824 120.277 41.3276C119.599 41.0939 118.888 40.9744 118.166 40.9744C115.757 40.9744 113.558 42.3174 112.697 44.3137L89.3585 98.3037C88.8004 99.602 88.8437 101.015 89.4802 102.284C90.1179 103.556 91.2762 104.531 92.7305 105.023ZM136.676 42.253C135.573 41.2143 134.018 40.6181 132.41 40.6181C130.911 40.6181 129.482 41.1198 128.389 42.0328C127.249 42.9894 126.598 44.2784 126.553 45.6682C126.507 47.0589 127.073 48.3801 128.147 49.3939L153.429 73.1752L128.145 96.9534C125.931 99.038 126.038 102.339 128.387 104.317C129.48 105.227 130.906 105.729 132.409 105.729C134.023 105.729 135.578 105.133 136.676 104.099L165.754 76.7576C167.89 74.755 167.892 71.6172 165.758 69.6105L136.676 42.253ZM59.5673 73.171L84.8516 49.399C87.07 47.3103 86.9623 44.0104 84.6106 42.0411C83.5178 41.1281 82.0891 40.6254 80.5868 40.6254C78.9769 40.6254 77.4231 41.2195 76.3233 42.2561L47.2387 69.5928C45.1104 71.6006 45.1104 74.7374 47.2399 76.7399L76.3233 104.102C77.4289 105.14 78.9827 105.733 80.588 105.733C82.0856 105.733 83.5142 105.23 84.6106 104.311C85.749 103.358 86.3995 102.069 86.4463 100.681C86.492 99.2883 85.9268 97.9672 84.8516 96.9586L59.5673 73.171Z" fill="black"/>
</g>
<defs>
<clipPath id="clip0_1_3">
<rect width="213" height="184" fill="white"/>
</clipPath>
</defs>
</svg>
