<svg xmlns="http://www.w3.org/2000/svg" xmlns:xlink="http://www.w3.org/1999/xlink" width="300" zoomAndPan="magnify" viewBox="0 0 224.87999 149.999998" height="200" preserveAspectRatio="xMidYMid meet" version="1.0"><defs><g/><clipPath id="6d9982e56d"><path d="M 0 0.0390625 L 224.761719 0.0390625 L 224.761719 149.960938 L 0 149.960938 Z M 0 0.0390625 " clip-rule="nonzero"/></clipPath><clipPath id="cdd88f7400"><path d="M 3 0.0390625 L 64 0.0390625 L 64 142 L 3 142 Z M 3 0.0390625 " clip-rule="nonzero"/></clipPath><clipPath id="f6a143599c"><path d="M 158 0.0390625 L 219 0.0390625 L 219 142 L 158 142 Z M 158 0.0390625 " clip-rule="nonzero"/></clipPath></defs><g clip-path="url(#6d9982e56d)"><path fill="#ffffff" d="M 0 0.0390625 L 224.878906 0.0390625 L 224.878906 157.457031 L 0 157.457031 Z M 0 0.0390625 " fill-opacity="1" fill-rule="nonzero"/><path fill="#ffffff" d="M 0 0.0390625 L 224.878906 0.0390625 L 224.878906 149.960938 L 0 149.960938 Z M 0 0.0390625 " fill-opacity="1" fill-rule="nonzero"/><path fill="#ffffff" d="M 0 0.0390625 L 224.878906 0.0390625 L 224.878906 149.960938 L 0 149.960938 Z M 0 0.0390625 " fill-opacity="1" fill-rule="nonzero"/></g><path stroke-linecap="butt" transform="matrix(0.749384, 0, 0, 0.7496, 29.332224, 129.48786)" fill="none" stroke-linejoin="miter" d="M -0.00025752 3.502429 L 217.063412 3.502429 " stroke="#ed1e79" stroke-width="7" stroke-opacity="1" stroke-miterlimit="4"/><path stroke-linecap="butt" transform="matrix(0.749058, 0, 0, 0.7496, 29.332224, 15.349807)" fill="none" stroke-linejoin="miter" d="M -0.000257632 3.498999 L 216.172278 3.498999 " stroke="#000000" stroke-width="7" stroke-opacity="1" stroke-miterlimit="4"/><g clip-path="url(#cdd88f7400)"><path stroke-linecap="butt" transform="matrix(-0.00361368, -0.751503, 0.749591, -0.00360449, 30.725051, 111.517439)" fill="none" stroke-linejoin="miter" d="M 0.00122578 3.49872 L 128.680882 3.498938 " stroke="#000000" stroke-width="7" stroke-opacity="1" stroke-miterlimit="4"/></g><g fill="#ed1e79" fill-opacity="1"><g transform="translate(61.04189, 81.066761)"><g><path d="M 29.804688 -4.398438 L 32.785156 -9.550781 L 12.730469 -19.503906 L 32.785156 -29.457031 L 29.804688 -34.609375 L 1.300781 -19.503906 Z M 29.804688 -4.398438 "/></g></g><g transform="translate(96.837273, 81.066761)"><g><path d="M -1.070312 12.441406 L 5.5 12.441406 L 28.097656 -43.867188 L 21.5 -43.867188 Z M -1.070312 12.441406 "/></g></g><g transform="translate(123.864668, 81.066761)"><g><path d="M 5.988281 -4.398438 L 34.492188 -19.503906 L 5.988281 -34.609375 L 3.007812 -29.457031 L 23.0625 -19.503906 L 3.007812 -9.550781 Z M 5.988281 -4.398438 "/></g></g></g><g fill="#0d1950" fill-opacity="1"><g transform="translate(52.915281, 111.077061)"><g><path d="M 15.957031 -9.480469 L 12.972656 -0.949219 L 8.988281 -9.480469 L 8.042969 -9.480469 L 4.058594 -0.949219 L 1.074219 -9.480469 L 0.207031 -9.480469 L 3.523438 0 L 4.503906 0 L 8.515625 -8.59375 L 12.527344 0 L 13.507812 0 L 16.828125 -9.480469 Z M 15.957031 -9.480469 "/></g></g></g><g fill="#0d1950" fill-opacity="1"><g transform="translate(70.260917, 111.077061)"><g><path d="M 11.15625 -8.753906 L 11.15625 -9.480469 L 1.960938 -9.480469 L 1.960938 0 L 11.15625 0 L 11.15625 -0.726562 L 2.78125 -0.726562 L 2.78125 -4.25 L 10.570312 -4.25 L 10.570312 -4.976562 L 2.78125 -4.976562 L 2.78125 -8.753906 Z M 11.15625 -8.753906 "/></g></g></g><g fill="#0d1950" fill-opacity="1"><g transform="translate(82.693569, 111.077061)"><g><path d="M 1.960938 0 L 7.742188 0 C 10.269531 0 11.296875 -0.902344 11.296875 -2.496094 L 11.296875 -2.890625 C 11.296875 -4.027344 10.757812 -4.675781 9.542969 -4.960938 C 10.570312 -5.230469 11.011719 -5.8125 11.011719 -6.921875 L 11.011719 -7.285156 C 11.011719 -8.640625 10.046875 -9.480469 7.742188 -9.480469 L 1.960938 -9.480469 Z M 2.78125 -5.355469 L 2.78125 -8.691406 L 7.742188 -8.691406 C 9.496094 -8.691406 10.160156 -8.214844 10.160156 -7.285156 L 10.160156 -6.921875 C 10.160156 -5.847656 9.527344 -5.355469 7.742188 -5.355469 Z M 2.78125 -0.789062 L 2.78125 -4.535156 L 7.742188 -4.535156 C 9.699219 -4.535156 10.445312 -4.027344 10.445312 -2.890625 L 10.445312 -2.496094 C 10.445312 -1.375 9.699219 -0.789062 7.742188 -0.789062 Z M 2.78125 -0.789062 "/></g></g></g><g fill="#0d1950" fill-opacity="1"><g transform="translate(95.631736, 111.077061)"><g/></g></g><g fill="#0d1950" fill-opacity="1"><g transform="translate(102.266754, 111.077061)"><g><path d="M 7.820312 -4.835938 L 7.820312 -4.109375 L 12.402344 -4.109375 C 12.179688 -1.753906 10.476562 -0.632812 7.203125 -0.632812 C 3.648438 -0.632812 2.117188 -1.925781 2.117188 -4.390625 L 2.117188 -5.085938 C 2.117188 -7.550781 3.730469 -8.847656 7.285156 -8.847656 C 10.460938 -8.847656 12.007812 -7.820312 12.246094 -6.210938 L 13.128906 -6.210938 C 12.910156 -8.246094 11.074219 -9.636719 7.285156 -9.636719 C 3.113281 -9.636719 1.265625 -7.929688 1.265625 -5.085938 L 1.265625 -4.390625 C 1.265625 -1.546875 3.035156 0.15625 7.203125 0.15625 C 9.953125 0.15625 11.613281 -0.601562 12.402344 -2.007812 L 12.5625 0 L 13.222656 0 L 13.222656 -4.835938 Z M 7.820312 -4.835938 "/></g></g></g><g fill="#0d1950" fill-opacity="1"><g transform="translate(117.163793, 111.077061)"><g><path d="M 11.15625 -8.753906 L 11.15625 -9.480469 L 1.960938 -9.480469 L 1.960938 0 L 11.15625 0 L 11.15625 -0.726562 L 2.78125 -0.726562 L 2.78125 -4.25 L 10.570312 -4.25 L 10.570312 -4.976562 L 2.78125 -4.976562 L 2.78125 -8.753906 Z M 11.15625 -8.753906 "/></g></g></g><g fill="#0d1950" fill-opacity="1"><g transform="translate(129.596444, 111.077061)"><g><path d="M 11.15625 -8.753906 L 11.15625 -9.480469 L 1.960938 -9.480469 L 1.960938 0 L 11.15625 0 L 11.15625 -0.726562 L 2.78125 -0.726562 L 2.78125 -4.25 L 10.570312 -4.25 L 10.570312 -4.976562 L 2.78125 -4.976562 L 2.78125 -8.753906 Z M 11.15625 -8.753906 "/></g></g></g><g fill="#0d1950" fill-opacity="1"><g transform="translate(142.029091, 111.077061)"><g><path d="M 11.960938 -9.480469 L 10.808594 -9.480469 L 5.78125 -5.167969 L 2.78125 -5.167969 L 2.78125 -9.480469 L 1.960938 -9.480469 L 1.960938 0 L 2.78125 0 L 2.78125 -4.375 L 5.640625 -4.375 L 10.742188 0 L 11.960938 0 L 6.492188 -4.738281 Z M 11.960938 -9.480469 "/></g></g></g><g fill="#0d1950" fill-opacity="1"><g transform="translate(154.619709, 111.077061)"><g><path d="M 11.074219 -6.351562 L 11.898438 -6.351562 C 11.898438 -8.691406 10.144531 -9.621094 6.746094 -9.621094 C 2.71875 -9.621094 1.28125 -8.609375 1.28125 -7.300781 L 1.28125 -6.953125 C 1.28125 -5.339844 2.605469 -4.835938 6.398438 -4.441406 C 10.128906 -4.058594 10.980469 -3.617188 10.980469 -2.589844 L 10.980469 -2.308594 C 10.980469 -1.230469 9.351562 -0.632812 6.414062 -0.632812 C 3.476562 -0.632812 2.085938 -1.3125 2.085938 -3.285156 L 1.265625 -3.285156 C 1.265625 -0.949219 2.703125 0.15625 6.414062 0.15625 C 10.378906 0.15625 11.800781 -0.902344 11.800781 -2.210938 L 11.800781 -2.558594 C 11.800781 -4.296875 10.476562 -4.789062 6.492188 -5.199219 C 2.953125 -5.5625 2.101562 -6.019531 2.101562 -6.921875 L 2.101562 -7.203125 C 2.101562 -8.261719 3.695312 -8.832031 6.746094 -8.832031 C 9.652344 -8.832031 11.074219 -8.167969 11.074219 -6.351562 Z M 11.074219 -6.351562 "/></g></g></g><g clip-path="url(#f6a143599c)"><path stroke-linecap="butt" transform="matrix(-0.00521474, -0.751311, 0.749582, -0.00520274, 185.86323, 111.542687)" fill="none" stroke-linejoin="miter" d="M 0.00137067 3.502031 L 128.703508 3.501061 " stroke="#000000" stroke-width="7" stroke-opacity="1" stroke-miterlimit="4"/></g></svg>